<svg width="22" height="30" fill="none" xmlns="http://www.w3.org/2000/svg"><path d="M13.188 11.39a.547.547 0 100-1.093.547.547 0 000 1.094zm-4.375 0a.547.547 0 100-1.093.547.547 0 000 1.094zM11 16.313c.925 0 1.754-.586 2.063-1.459a.547.547 0 10-1.032-.364 1.096 1.096 0 01-2.063 0 .547.547 0 00-1.03.364A2.191 2.191 0 0011 16.313zM16.469 29a.547.547 0 100-1.094.547.547 0 000 1.094z" fill="#02075D"/><mask id="a" maskUnits="userSpaceOnUse" x="-.391" y="0" width="22" height="30" fill="#000"><path fill="#fff" d="M-.391 0h22v30h-22z"/><path d="M18.93 27.906a.547.547 0 100 1.094h1.914a.547.547 0 00.547-.547v-4.518a4.922 4.922 0 00-4.226-4.872l-2.197-.314a1.434 1.434 0 01-1.204-1.136c1.152-.758 2.203-1.977 3.004-3.488h.248a2.19 2.19 0 002.187-2.188c0-.817-.466-1.56-1.176-1.93l.082-1.898C18.11 4.19 14.92 1 11 1a7.117 7.117 0 00-7.109 7.133l.082 1.873a2.191 2.191 0 00-1.176 1.931 2.19 2.19 0 002.187 2.188h.248c.8 1.51 1.852 2.73 3.004 3.488a1.435 1.435 0 01-1.203 1.136l-2.198.314A4.922 4.922 0 00.61 23.935v4.518c0 .302.245.547.547.547h12.852a.547.547 0 100-1.094h-2.461v-4.292l3.057-3.822c.069.015.138.03.209.04l1.109.158v3.635a1.643 1.643 0 00-1.094 1.547c0 .904.736 1.64 1.64 1.64.905 0 1.641-.736 1.641-1.64 0-.713-.457-1.32-1.093-1.547v-3.479a3.847 3.847 0 013.28 3.789v3.971H18.93zM11 22.546l-2.592-3.24c.38-.303.664-.708.819-1.167A4.65 4.65 0 0011 18.5a4.67 4.67 0 001.773-.36c.155.459.44.864.82 1.166L11 22.546zm0-20.452a6.022 6.022 0 016.016 6.004l-.068 1.559a1.559 1.559 0 01-1.026-1.462V8.11a.547.547 0 00-.547-.546h-1.928a3.394 3.394 0 01-3.052-1.886.547.547 0 00-1.036.245c0 .905-.736 1.64-1.64 1.64H6.625a.547.547 0 00-.547.547v.086a1.56 1.56 0 01-1.026 1.462l-.068-1.56A6.022 6.022 0 0111 2.095zM6.056 13.335a.547.547 0 00-.49-.304h-.582c-.603 0-1.093-.49-1.093-1.094 0-.87.83-1.038.943-1.112a2.657 2.657 0 002.298-2.169h.587a2.737 2.737 0 002.413-1.45 4.479 4.479 0 003.315 1.45h1.421a2.658 2.658 0 002.298 2.169c.11.072.943.245.943 1.113 0 .603-.49 1.093-1.093 1.093h-.582a.547.547 0 00-.49.304c-.962 1.942-2.775 4.071-4.944 4.071-2.162 0-3.967-2.1-4.944-4.07zM1.703 27.906v-3.971c0-1.89 1.41-3.518 3.281-3.788v1.69a2.739 2.739 0 00-2.187 2.679v1.75c0 .302.245.547.547.547h1.094a.547.547 0 000-1.094H3.89v-1.203c0-.905.736-1.641 1.64-1.641.905 0 1.64.736 1.64 1.64v1.204h-.546a.547.547 0 100 1.093h1.094a.547.547 0 00.547-.546v-1.75a2.74 2.74 0 00-2.188-2.68V19.99l1.11-.158c.07-.01.14-.024.208-.04l3.057 3.822v4.292h-8.75zM16.47 25.72a.548.548 0 11.001-1.095.548.548 0 01-.001 1.095z"/></mask><path d="M18.93 27.906a.547.547 0 100 1.094h1.914a.547.547 0 00.547-.547v-4.518a4.922 4.922 0 00-4.226-4.872l-2.197-.314a1.434 1.434 0 01-1.204-1.136c1.152-.758 2.203-1.977 3.004-3.488h.248a2.19 2.19 0 002.187-2.188c0-.817-.466-1.56-1.176-1.93l.082-1.898C18.11 4.19 14.92 1 11 1a7.117 7.117 0 00-7.109 7.133l.082 1.873a2.191 2.191 0 00-1.176 1.931 2.19 2.19 0 002.187 2.188h.248c.8 1.51 1.852 2.73 3.004 3.488a1.435 1.435 0 01-1.203 1.136l-2.198.314A4.922 4.922 0 00.61 23.935v4.518c0 .302.245.547.547.547h12.852a.547.547 0 100-1.094h-2.461v-4.292l3.057-3.822c.069.015.138.03.209.04l1.109.158v3.635a1.643 1.643 0 00-1.094 1.547c0 .904.736 1.64 1.64 1.64.905 0 1.641-.736 1.641-1.64 0-.713-.457-1.32-1.093-1.547v-3.479a3.847 3.847 0 013.28 3.789v3.971H18.93zM11 22.546l-2.592-3.24c.38-.303.664-.708.819-1.167A4.65 4.65 0 0011 18.5a4.67 4.67 0 001.773-.36c.155.459.44.864.82 1.166L11 22.546zm0-20.452a6.022 6.022 0 016.016 6.004l-.068 1.559a1.559 1.559 0 01-1.026-1.462V8.11a.547.547 0 00-.547-.546h-1.928a3.394 3.394 0 01-3.052-1.886.547.547 0 00-1.036.245c0 .905-.736 1.64-1.64 1.64H6.625a.547.547 0 00-.547.547v.086a1.56 1.56 0 01-1.026 1.462l-.068-1.56A6.022 6.022 0 0111 2.095zM6.056 13.335a.547.547 0 00-.49-.304h-.582c-.603 0-1.093-.49-1.093-1.094 0-.87.83-1.038.943-1.112a2.657 2.657 0 002.298-2.169h.587a2.737 2.737 0 002.413-1.45 4.479 4.479 0 003.315 1.45h1.421a2.658 2.658 0 002.298 2.169c.11.072.943.245.943 1.113 0 .603-.49 1.093-1.093 1.093h-.582a.547.547 0 00-.49.304c-.962 1.942-2.775 4.071-4.944 4.071-2.162 0-3.967-2.1-4.944-4.07zM1.703 27.906v-3.971c0-1.89 1.41-3.518 3.281-3.788v1.69a2.739 2.739 0 00-2.187 2.679v1.75c0 .302.245.547.547.547h1.094a.547.547 0 000-1.094H3.89v-1.203c0-.905.736-1.641 1.64-1.641.905 0 1.64.736 1.64 1.64v1.204h-.546a.547.547 0 100 1.093h1.094a.547.547 0 00.547-.546v-1.75a2.74 2.74 0 00-2.188-2.68V19.99l1.11-.158c.07-.01.14-.024.208-.04l3.057 3.822v4.292h-8.75zM16.47 25.72a.548.548 0 11.001-1.095.548.548 0 01-.001 1.095z" fill="#02075D"/><path d="M18.93 27.906a.547.547 0 100 1.094h1.914a.547.547 0 00.547-.547v-4.518a4.922 4.922 0 00-4.226-4.872l-2.197-.314a1.434 1.434 0 01-1.204-1.136c1.152-.758 2.203-1.977 3.004-3.488h.248a2.19 2.19 0 002.187-2.188c0-.817-.466-1.56-1.176-1.93l.082-1.898C18.11 4.19 14.92 1 11 1a7.117 7.117 0 00-7.109 7.133l.082 1.873a2.191 2.191 0 00-1.176 1.931 2.19 2.19 0 002.187 2.188h.248c.8 1.51 1.852 2.73 3.004 3.488a1.435 1.435 0 01-1.203 1.136l-2.198.314A4.922 4.922 0 00.61 23.935v4.518c0 .302.245.547.547.547h12.852a.547.547 0 100-1.094h-2.461v-4.292l3.057-3.822c.069.015.138.03.209.04l1.109.158v3.635a1.643 1.643 0 00-1.094 1.547c0 .904.736 1.64 1.64 1.64.905 0 1.641-.736 1.641-1.64 0-.713-.457-1.32-1.093-1.547v-3.479a3.847 3.847 0 013.28 3.789v3.971H18.93zM11 22.546l-2.592-3.24c.38-.303.664-.708.819-1.167A4.65 4.65 0 0011 18.5a4.67 4.67 0 001.773-.36c.155.459.44.864.82 1.166L11 22.546zm0-20.452a6.022 6.022 0 016.016 6.004l-.068 1.559a1.559 1.559 0 01-1.026-1.462V8.11a.547.547 0 00-.547-.546h-1.928a3.394 3.394 0 01-3.052-1.886.547.547 0 00-1.036.245c0 .905-.736 1.64-1.64 1.64H6.625a.547.547 0 00-.547.547v.086a1.56 1.56 0 01-1.026 1.462l-.068-1.56A6.022 6.022 0 0111 2.095zM6.056 13.335a.547.547 0 00-.49-.304h-.582c-.603 0-1.093-.49-1.093-1.094 0-.87.83-1.038.943-1.112a2.657 2.657 0 002.298-2.169h.587a2.737 2.737 0 002.413-1.45 4.479 4.479 0 003.315 1.45h1.421a2.658 2.658 0 002.298 2.169c.11.072.943.245.943 1.113 0 .603-.49 1.093-1.093 1.093h-.582a.547.547 0 00-.49.304c-.962 1.942-2.775 4.071-4.944 4.071-2.162 0-3.967-2.1-4.944-4.07zM1.703 27.906v-3.971c0-1.89 1.41-3.518 3.281-3.788v1.69a2.739 2.739 0 00-2.187 2.679v1.75c0 .302.245.547.547.547h1.094a.547.547 0 000-1.094H3.89v-1.203c0-.905.736-1.641 1.64-1.641.905 0 1.64.736 1.64 1.64v1.204h-.546a.547.547 0 100 1.093h1.094a.547.547 0 00.547-.546v-1.75a2.74 2.74 0 00-2.188-2.68V19.99l1.11-.158c.07-.01.14-.024.208-.04l3.057 3.822v4.292h-8.75zM16.47 25.72a.548.548 0 11.001-1.095.548.548 0 01-.001 1.095z" stroke="#02075D" stroke-width=".4" mask="url(#a)"/></svg>