<svg width="25" height="32" fill="none" xmlns="http://www.w3.org/2000/svg"><path d="M18.357 4.015c.154-.155.3-.302.448-.457.3-.31.625-.589.972-.836.478-.341.995-.574 1.597-.574.51 0 .965.194 1.297.52l1.473-.427a2.966 2.966 0 00-1.99-1.37 3.682 3.682 0 00-1.366-.008 3.877 3.877 0 00-1.466.604c-.548.356-1.027.805-1.49 1.255-.108.1-.2.216-.308.325l-1.011 1.03h.007c.008 0 .008 0 .016-.008-.008 0-.008.008-.016.008h-.007l-.023.023c-.008.016-.024.023-.031.031l-.047.046-.463.465c-.393.387-.802.744-1.296 1.007-.556.302-1.142.434-1.767.24-.571-.17-.95-.55-1.15-1.107-.023-.078-.046-.148-.07-.225l-1.427-.031c.054.457.193.89.417 1.293.023.039.046.07.07.109.115.17.23.34.385.48.1.124.224.217.347.31.054.038.1.085.162.1.024.008.039.031.062.047.216.131.455.232.702.302.41.131.826.162 1.25.131a3.659 3.659 0 001.667-.542c.332-.193.64-.426.934-.666.24-.201.47-.418.694-.635l1.405-1.432c.015.007.015 0 .023-.008z" fill="#046CB3"/><path d="M16.412 4.185l.046-.046c-.023.015-.03.03-.046.046z" fill="#E74343"/><path d="M11.844 3.148c.147-.28.355-.504.625-.682a1.87 1.87 0 011.242-.31c.402.039.756.186 1.096.395.262.163.494.364.733.566.332.31.64.635.957.96 0 .015 0 .023-.008.03l.023-.022h-.015.015l1.011-1.03c-.03.03-.07.062-.108.093-.008 0-.015 0-.023-.008-.139-.163-.293-.31-.447-.457a.367.367 0 00-.078-.078.06.06 0 00-.03-.03.07.07 0 00-.047-.047V2.52l-.015-.015h-.008a.092.092 0 00-.046-.047s0-.007-.008-.007c-.008-.016-.015-.031-.03-.031-.032-.04-.055-.07-.093-.093 0 0 0-.008-.008-.008 0-.008-.008-.008-.008-.008-.008-.023-.023-.03-.046-.039l-.016-.015c-.023-.031-.046-.062-.085-.078h-.007c-.008-.007-.008-.015-.016-.023a6.604 6.604 0 00-1.312-.952 3.357 3.357 0 00-1.79-.395 1.73 1.73 0 00-.347.046 1.339 1.339 0 00-.386.093 1.075 1.075 0 00-.224.07 2.796 2.796 0 00-.941.542c-.139.108-.27.225-.378.372-.085.07-.139.155-.2.247a.985.985 0 00-.14.21c-.015.007-.015.015-.015.03a1.09 1.09 0 00-.147.264 3.255 3.255 0 00-.3 1.665c.007.062.007.132.015.194l1.427.03a1.997 1.997 0 01.178-1.424z" fill="url(#paint0_linear)"/><path d="M17.346 5.053c.054-.055.085-.055.13 0 .271.263.549.534.819.79.432.41.895.782 1.427 1.068.58.31 1.189.457 1.837.403a3.297 3.297 0 001.952-.813 3.214 3.214 0 001.019-1.696c.146-.604.108-1.208-.062-1.805a3.057 3.057 0 00-.332-.759l-1.474.426c.31.302.51.713.54 1.193.008.085.008.163.016.248a1.921 1.921 0 01-2.076 1.874c-.455-.039-.856-.217-1.234-.465a6.424 6.424 0 01-.672-.542c-.308-.279-.594-.573-.895-.86-.03-.03-.03-.046-.015-.07L16.92 5.48l.425-.426z" fill="url(#paint1_linear)"/><path d="M11.697 16.019c-.123.093-.223.162-.3.248C7.83 19.843 4.266 23.415.708 26.992a2.374 2.374 0 000 3.384 2.37 2.37 0 003.357-.008c2.994-2.997 5.98-6.002 8.966-8.999 2.994-3.19-1.335-5.351-1.335-5.351z" fill="url(#paint2_linear)"/><path d="M16.728 14.323A9804.118 9804.118 0 004.042 1.59C3.117.66 1.62.685.694 1.62a2.39 2.39 0 00-.008 3.346c2.562 2.58 5.131 5.15 7.693 7.722l3.318 3.33s4.322 2.168 1.328 5.351l3.696-3.71a2.346 2.346 0 00.007-3.337z" fill="#34B7E9"/><defs><linearGradient id="paint0_linear" x1="11.78" y1="2.552" x2="18.732" y2="4.811" gradientUnits="userSpaceOnUse"><stop offset=".276" stop-color="#046CB3"/><stop offset=".856" stop-color="#0A4A7B"/></linearGradient><linearGradient id="paint1_linear" x1="24.504" y1="5.673" x2="17.408" y2="2.691" gradientUnits="userSpaceOnUse"><stop offset=".425" stop-color="#046CB3"/><stop offset=".787" stop-color="#08558D"/><stop offset="1" stop-color="#0A4A7B"/></linearGradient><linearGradient id="paint2_linear" x1="-.986" y1="26.469" x2="13.588" y2="21.324" gradientUnits="userSpaceOnUse"><stop offset=".041" stop-color="#34B7E9"/><stop offset="1" stop-color="#046CB3"/></linearGradient></defs></svg>