<svg width="22" height="21" fill="none" xmlns="http://www.w3.org/2000/svg"><path d="M11.04.398c-4.193 0-8.173-.373-9.693 3.53-.628 1.61-.537 3.704-.537 6.7 0 2.63-.084 5.102.537 6.7 1.517 3.905 5.53 3.531 9.69 3.531 4.014 0 8.152.418 9.691-3.53.63-1.628.537-3.69.537-6.7 0-3.997.22-6.577-1.718-8.514C17.585.152 14.931.398 11.034.398h.005zm-.917 1.844c8.743-.014 9.856-.986 9.242 12.517-.218 4.776-3.855 4.252-8.325 4.252-8.15 0-8.384-.233-8.384-8.387 0-8.248.646-8.378 7.466-8.385v.003zM16.5 3.94a1.227 1.227 0 100 2.454 1.227 1.227 0 000-2.454zm-5.46 1.435a5.253 5.253 0 000 10.506 5.251 5.251 0 005.25-5.252 5.252 5.252 0 00-5.25-5.254zm0 1.843c4.507 0 4.513 6.82 0 6.82-4.508 0-4.515-6.82 0-6.82z" fill="#fff"/></svg>