<svg width="375" height="1219" fill="none" xmlns="http://www.w3.org/2000/svg"><path fill="#776FC4" d="M0 0h375v1219H0z"/><g opacity=".1" fill="#fff"><path d="M148.775 95.78c2.355-2.363 4.592-4.608 6.829-6.971a108.665 108.665 0 0114.835-12.762c7.3-5.199 15.188-8.744 24.372-8.744 7.77 0 14.717 2.954 19.779 7.917l22.488-6.499c-3.532-5.79-8.241-10.635-14.246-14.534-4.945-3.19-10.361-5.199-16.13-6.38-6.946-1.419-13.893-1.3-20.839-.119-8.124 1.418-15.542 4.727-22.371 9.217-8.359 5.435-15.659 12.289-22.723 19.142-1.648 1.536-3.061 3.309-4.709 4.963l-15.424 15.716h.118c.118 0 .118 0 .235-.118-.117 0-.117.118-.235.118h-.118l-.353.354c-.118.237-.353.355-.471.473l-.706.709-7.065 7.09c-6.004 5.908-12.244 11.343-19.78 15.361-8.477 4.608-17.425 6.617-26.961 3.663-8.713-2.6-14.482-8.39-17.543-16.897-.353-1.182-.707-2.246-1.06-3.427l-21.781-.473c.824 6.972 2.943 13.589 6.358 19.733.353.591.706 1.064 1.06 1.655 1.765 2.599 3.531 5.199 5.886 7.326 1.53 1.89 3.415 3.308 5.298 4.726.824.591 1.53 1.3 2.473 1.536.353.119.588.473.942.709 3.296 2.009 6.946 3.545 10.714 4.609 6.24 2.008 12.598 2.481 19.073 2.008 9.184-.59 17.543-3.544 25.431-8.271 5.063-2.954 9.773-6.499 14.247-10.162 3.649-3.072 7.182-6.381 10.596-9.689l21.428-21.86c.236.118.236 0 .353-.118z"/><path d="M119.098 98.382l.706-.71c-.353.237-.471.474-.706.71zM49.4 82.548c2.238-4.254 5.416-7.681 9.537-10.399.354-.236 1.649-1.063 1.884-1.181 5.298-2.955 10.95-4.136 17.072-3.545 6.122.59 11.538 2.836 16.719 6.026 4.003 2.481 7.535 5.554 11.185 8.626 5.062 4.726 9.772 9.69 14.599 14.652 0 .236 0 .355-.118.473l.354-.355h-.236.236l15.423-15.715c-.471.472-1.059.945-1.648 1.418-.118 0-.236 0-.353-.119-2.12-2.481-4.474-4.726-6.829-6.971a5.59 5.59 0 00-1.178-1.182.918.918 0 00-.47-.472 1.065 1.065 0 00-.707-.71v-.118l-.235-.236h-.118c-.118-.354-.471-.59-.707-.709 0 0 0-.118-.117-.118-.118-.236-.236-.473-.471-.473-.471-.59-.824-1.063-1.413-1.418 0 0 0-.118-.118-.118 0-.118-.118-.118-.118-.118-.117-.355-.353-.473-.706-.59l-.235-.237c-.354-.473-.707-.946-1.296-1.182h-.117c-.118-.118-.118-.236-.236-.354-6.122-5.554-12.715-10.635-20.015-14.534-8.595-4.49-17.66-6.617-27.315-6.027-1.766.119-3.532.237-5.298.71-2.002.236-4.003.59-5.887 1.417-1.178.237-2.355.591-3.415 1.064-5.298 1.772-10.125 4.608-14.363 8.271-2.12 1.654-4.121 3.427-5.77 5.672-1.295 1.063-2.119 2.363-3.06 3.781a15.02 15.02 0 00-2.12 3.19c-.235.119-.235.237-.235.473-.942 1.182-1.649 2.6-2.238 4.018C25.5 83.493 23.97 92 24.676 100.863c.118.945.118 2.009.235 2.954l21.782.473c-1.767-7.445-.942-14.77 2.708-21.742zm83.953 29.068c.825-.827 1.296-.827 2.002 0 4.121 4.017 8.359 8.153 12.48 12.052 6.593 6.263 13.658 11.935 21.782 16.307 8.83 4.726 18.131 6.971 28.021 6.144 11.303-.945 21.31-4.963 29.787-12.407 7.889-6.971 13.069-15.597 15.542-25.877 2.237-9.217 1.648-18.434-.942-27.532-1.177-4.254-2.943-8.035-5.063-11.58l-22.488 6.499c4.71 4.608 7.771 10.87 8.242 18.197.118 1.3.118 2.481.236 3.78-.354 16.898-14.953 30.014-31.672 28.596-6.946-.591-13.069-3.308-18.838-7.089-3.65-2.482-6.946-5.318-10.243-8.272-4.709-4.254-9.066-8.744-13.657-13.116-.471-.473-.471-.709-.236-1.063l-21.428 21.86 6.475-6.499zM47.156 278.934c-1.884 1.418-3.415 2.481-4.592 3.781-54.395 54.591-108.79 109.064-163.066 163.655-14.482 14.534-14.364 37.34 0 51.637 14.128 14.062 36.97 14.18 51.215-.118 45.683-45.729 91.247-91.576 136.811-137.305 45.682-48.683-20.368-81.65-20.368-81.65z"/><path d="M123.925 253.057a150404.378 150404.378 0 00-193.56-194.26c-14.129-14.18-36.97-13.825-51.098.473-13.893 14.061-14.011 36.985-.118 51.046 39.089 39.349 78.295 78.579 117.384 117.809l50.627 50.81s65.933 33.085 20.25 81.65l56.397-56.6c14.246-14.298 14.246-36.748.118-50.928z"/></g></svg>