<svg width="28" height="23" fill="none" xmlns="http://www.w3.org/2000/svg"><path d="M27.853 3.035a11.83 11.83 0 01-3.273.897 5.648 5.648 0 002.499-3.14 11.352 11.352 0 01-3.602 1.376 5.678 5.678 0 00-9.825 3.884c0 .45.038.883.131 1.295-4.722-.23-8.9-2.494-11.707-5.941a5.719 5.719 0 00-.778 2.87 5.688 5.688 0 002.523 4.721 5.61 5.61 0 01-2.566-.7v.063a5.706 5.706 0 004.55 5.58 5.67 5.67 0 01-1.489.188c-.363 0-.73-.02-1.075-.097.736 2.25 2.824 3.903 5.307 3.957a11.412 11.412 0 01-7.042 2.422c-.466 0-.913-.02-1.36-.078a15.991 15.991 0 008.714 2.55c10.452 0 16.167-8.659 16.167-16.164 0-.25-.01-.493-.021-.734a11.36 11.36 0 002.847-2.949z" fill="#fff"/></svg>