<svg width="25" height="31" fill="none" xmlns="http://www.w3.org/2000/svg"><path d="M17.987.84c-1.56.111-3.385 1.135-4.447 2.468-.97 1.21-1.767 3.006-1.456 4.752 1.704.054 3.466-.994 4.487-2.35.955-1.262 1.677-3.047 1.416-4.87z" fill="#fff"/><path d="M24.153 10.906c-1.498-1.926-3.604-3.043-5.592-3.043-2.625 0-3.735 1.288-5.56 1.288-1.88 0-3.308-1.284-5.578-1.284-2.23 0-4.605 1.396-6.11 3.785-2.117 3.364-1.755 9.688 1.675 15.075 1.228 1.927 2.867 4.095 5.01 4.114 1.909.018 2.446-1.255 5.031-1.268 2.585-.015 3.075 1.285 4.98 1.264 2.145-.017 3.874-2.419 5.101-4.346.88-1.382 1.208-2.078 1.89-3.638-4.963-1.937-5.759-9.17-.847-11.947z" fill="#fff"/></svg>