<svg width="51" height="55" fill="none" xmlns="http://www.w3.org/2000/svg"><path d="M40.27 50.121h-.739a.852.852 0 100 1.704h.738a.852.852 0 000-1.704z" fill="#F2994A" stroke="#F2994A" stroke-width=".2"/><path d="M30.07 4.128h-7.675a4.843 4.843 0 00-9.06 0H5.66A4.665 4.665 0 001 8.788v32.826a4.666 4.666 0 004.66 4.66h20.463a4.44 4.44 0 00-.846 2.61v4.558a.752.752 0 00.752.752h23.633a.752.752 0 00.752-.752v-4.559a4.442 4.442 0 00-3.018-4.21l-1.122-.38 1.349-.165a.752.752 0 00.645-.898l-1.776-8.611a2.51 2.51 0 00.97-2.632 2.05 2.05 0 00-1.157-1.398l.01-2.897a8.473 8.473 0 00-11.584-7.937V8.79a4.665 4.665 0 00-4.66-4.66zM13.898 5.633a.752.752 0 00.735-.59c.323-1.47 1.682-2.538 3.232-2.538 1.55 0 2.91 1.067 3.233 2.538a.752.752 0 00.734.59h2.684v1.411A3.16 3.16 0 0121.36 10.2h-6.99a3.16 3.16 0 01-3.156-3.156v-1.41h2.684zM2.504 41.615V8.788A3.16 3.16 0 015.66 5.632h4.05v1.411a4.666 4.666 0 004.66 4.66h6.99a4.665 4.665 0 004.66-4.66v-1.41h4.05a3.16 3.16 0 013.157 3.156v11.743a8.477 8.477 0 00-3.866 7.11l.008 2.644v.018l.006.29a2.051 2.051 0 00-1.146 1.393 2.508 2.508 0 001.175 2.764l-2.245 8.437a.754.754 0 00.547.924c.495.112.995.197 1.5.254l-.91.308c-.088.03-.173.063-.258.097H5.66a3.16 3.16 0 01-3.156-3.157zm37.966-14.18a6.793 6.793 0 001.622 1.898 8.603 8.603 0 01-2.203-1.37c.195-.165.388-.34.58-.527zm-1.833 1.426a10.133 10.133 0 006.254 2.657.752.752 0 00.59.39.571.571 0 01.52.436 1.004 1.004 0 01-.798 1.226.762.762 0 00-.622.752 6.93 6.93 0 01-1.786 4.588c-1.163 1.284-2.681 1.991-4.277 1.991h-1.345c-1.595 0-3.114-.707-4.276-1.991a6.936 6.936 0 01-1.787-4.599.752.752 0 00-.622-.74 1 1 0 01-.798-1.227.572.572 0 01.52-.436.752.752 0 00.558-.335 1.927 1.927 0 002.158-1.036.407.407 0 01.106-.14c1.2-.067 3.385-.191 5.605-1.536v0zm-8.398 8.6a8.46 8.46 0 001.543 2.458 7.76 7.76 0 002.211 1.712v1.111l-.558.19c-.27-.003-.54-.013-.803-.023l-.038-.001-.08-1.486a.752.752 0 00-1.296-.477l-1.826 1.928a17.429 17.429 0 01-.572-.08l1.419-5.331zm.867 5.788l.023.43.003.033-.684.232.658-.695zm3.439.895l2.541 2.534v1.538l-3.762-3.659 1.22-.413zm4.045 2.549l2.557-2.55 1.22.414-3.777 3.673v-1.537zm1.604-3.724l-2.348 2.343-2.349-2.342v-.773a6.89 6.89 0 001.676.209h1.345c.565 0 1.128-.071 1.676-.209v.772zm-13.413 5.914a2.94 2.94 0 011.997-2.785l2.946-.998 5.362 5.214v2.376H26.781v-3.807zm22.13 0v3.807H38.59v-2.362l5.376-5.228 2.947.998a2.94 2.94 0 011.996 2.785zm-5.417-5.532l.352-.432.977.883-1.329-.45zm2.48-.537l-1.706-1.542a.752.752 0 00-1.087.083l-1.207 1.48-.276-.093v-1.11a7.766 7.766 0 002.212-1.713 8.462 8.462 0 001.602-2.606l1.118 5.421-.656.08zm-3.19-20.09a6.926 6.926 0 012.028 4.96l-.006 1.506c-1.522-.59-2.716-1.668-3.26-2.967.397-.516.756-1.06 1.074-1.628a.752.752 0 00-1.31-.74c-2.667 4.722-6.515 4.937-8.365 5.04l-.028.002c-.551.03-1.067.409-1.346.988a.427.427 0 01-.681.108l-.019-.018-.006-2.335a6.974 6.974 0 013.254-5.895.75.75 0 00.435-.254 6.966 6.966 0 018.23 1.233h0z" fill="#F2994A" stroke="#F2994A" stroke-width=".6"/><path d="M10.695 27.023h0a.952.952 0 111.33-1.363m-1.33 1.363l5.309 2.802m-5.31-2.802l4.645 4.534.14-.143-.14.143a.952.952 0 001.33 0l-.14-.143.14.143 8.367-8.169h0a.952.952 0 00-1.33-1.362m-13.011 4.997l13.01-4.997m-11.68 3.634l-.14.144.14-.143h0zm0 0l3.979 3.885m0 0l-.14.137.14.143m0-.28l7.702-7.52m-7.702 7.52l.14.137-.14.143m0 0l7.702-7.8m0 0l.14.144-.14-.143h0z" fill="#F2994A" stroke="#F2994A" stroke-width=".4"/></svg>