<svg width="48" height="53" fill="none" xmlns="http://www.w3.org/2000/svg"><path d="M10.961 19.728h8.965a1.196 1.196 0 100-2.393H10.96a1.196 1.196 0 100 2.393zm0 4.98h8.965a1.196 1.196 0 100-2.392H10.96a1.196 1.196 0 100 2.392zm0 4.98h8.965a1.196 1.196 0 100-2.392H10.96a1.196 1.196 0 100 2.392zm19.922 2.242h1.543v1.543c0 1.209.983 2.192 2.192 2.192h2.49a2.194 2.194 0 002.193-2.192V31.93h1.543a2.194 2.194 0 002.192-2.193v-2.49a2.194 2.194 0 00-2.192-2.192H39.3v-1.543a2.195 2.195 0 00-2.193-2.192h-2.49a2.194 2.194 0 00-2.192 2.192v1.543h-1.543a2.194 2.194 0 00-2.192 2.192v2.49c0 1.21.983 2.193 2.192 2.193zm3.935-5.679v0-2.54h2.09v2.54c0 .66.536 1.196 1.197 1.196h2.539v2.09h-2.54c-.66 0-1.196.536-1.196 1.196v2.54h-2.09v-2.54c0-.66-.535-1.196-1.196-1.196h-2.54v-2.09h2.54c.66 0 1.196-.535 1.196-1.196z" fill="#776FC4" stroke="#776FC4" stroke-width=".4"/><mask id="a" maskUnits="userSpaceOnUse" x="0" y="0" width="48" height="53" fill="#000"><path fill="#fff" d="M0 0h48v53H0z"/><path d="M44.828 17.535h-5.977v-9.96a2.593 2.593 0 00-2.59-2.59h-3.586a2.594 2.594 0 00-2.39-1.594h-7.122A3.393 3.393 0 0019.926 1a3.393 3.393 0 00-3.238 2.39H9.566c-1.075 0-1.999.66-2.39 1.594H3.59A2.593 2.593 0 001 7.574V49.41A2.593 2.593 0 003.59 52h32.672a2.593 2.593 0 002.59-2.59v-9.96h5.976a1.994 1.994 0 001.992-1.993v-17.93a1.995 1.995 0 00-1.992-1.992zm-7.969-9.96v9.96h-1.992v-7.57a.996.996 0 00-.996-.996h-1.405a2.58 2.58 0 00.409-1.395v-.597h3.387c.324 0 .597.273.597.597zM8.97 5.98c0-.323.273-.597.597-.597h7.97c.55 0 .995-.446.995-.996 0-.77.626-1.395 1.395-1.395s1.394.626 1.394 1.395c0 .55.446.996.996.996h7.97c.323 0 .597.274.597.597v1.594a.606.606 0 01-.598.598H9.566a.606.606 0 01-.597-.598V5.98zm17.55 4.184v1.47a.529.529 0 01-.522.522H13.854a.529.529 0 01-.521-.522v-1.47h13.186zm10.34 29.285v9.961a.606.606 0 01-.597.598H3.59a.606.606 0 01-.598-.598V7.574c0-.324.274-.597.598-.597h3.387v.597c0 .513.15.992.409 1.395H5.98a.996.996 0 00-.996.996v1.992a.996.996 0 001.993 0v-.996h4.364v.674a2.517 2.517 0 002.513 2.514h12.143a2.517 2.517 0 002.514-2.514v-.674h4.364v6.574h-5.976a1.994 1.994 0 00-1.992 1.992v6.147l-1.41 1.41a1.994 1.994 0 000 2.817l1.41 1.41v6.146c0 1.099.893 1.992 1.992 1.992h5.976v6.574H6.977V20.922a.996.996 0 00-1.993 0v26.097c0 .55.446.997.996.997h27.891c.55 0 .996-.446.996-.997v-7.57h1.992zm7.97-1.992H26.9v-6.559a.997.997 0 00-.292-.704l-1.702-1.702 1.702-1.701a.997.997 0 00.292-.705v-6.558h17.93v17.929z"/></mask><path d="M44.828 17.535h-5.977v-9.96a2.593 2.593 0 00-2.59-2.59h-3.586a2.594 2.594 0 00-2.39-1.594h-7.122A3.393 3.393 0 0019.926 1a3.393 3.393 0 00-3.238 2.39H9.566c-1.075 0-1.999.66-2.39 1.594H3.59A2.593 2.593 0 001 7.574V49.41A2.593 2.593 0 003.59 52h32.672a2.593 2.593 0 002.59-2.59v-9.96h5.976a1.994 1.994 0 001.992-1.993v-17.93a1.995 1.995 0 00-1.992-1.992zm-7.969-9.96v9.96h-1.992v-7.57a.996.996 0 00-.996-.996h-1.405a2.58 2.58 0 00.409-1.395v-.597h3.387c.324 0 .597.273.597.597zM8.97 5.98c0-.323.273-.597.597-.597h7.97c.55 0 .995-.446.995-.996 0-.77.626-1.395 1.395-1.395s1.394.626 1.394 1.395c0 .55.446.996.996.996h7.97c.323 0 .597.274.597.597v1.594a.606.606 0 01-.598.598H9.566a.606.606 0 01-.597-.598V5.98zm17.55 4.184v1.47a.529.529 0 01-.522.522H13.854a.529.529 0 01-.521-.522v-1.47h13.186zm10.34 29.285v9.961a.606.606 0 01-.597.598H3.59a.606.606 0 01-.598-.598V7.574c0-.324.274-.597.598-.597h3.387v.597c0 .513.15.992.409 1.395H5.98a.996.996 0 00-.996.996v1.992a.996.996 0 001.993 0v-.996h4.364v.674a2.517 2.517 0 002.513 2.514h12.143a2.517 2.517 0 002.514-2.514v-.674h4.364v6.574h-5.976a1.994 1.994 0 00-1.992 1.992v6.147l-1.41 1.41a1.994 1.994 0 000 2.817l1.41 1.41v6.146c0 1.099.893 1.992 1.992 1.992h5.976v6.574H6.977V20.922a.996.996 0 00-1.993 0v26.097c0 .55.446.997.996.997h27.891c.55 0 .996-.446.996-.997v-7.57h1.992zm7.97-1.992H26.9v-6.559a.997.997 0 00-.292-.704l-1.702-1.702 1.702-1.701a.997.997 0 00.292-.705v-6.558h17.93v17.929z" fill="#776FC4"/><path d="M44.828 17.535h-5.977v-9.96a2.593 2.593 0 00-2.59-2.59h-3.586a2.594 2.594 0 00-2.39-1.594h-7.122A3.393 3.393 0 0019.926 1a3.393 3.393 0 00-3.238 2.39H9.566c-1.075 0-1.999.66-2.39 1.594H3.59A2.593 2.593 0 001 7.574V49.41A2.593 2.593 0 003.59 52h32.672a2.593 2.593 0 002.59-2.59v-9.96h5.976a1.994 1.994 0 001.992-1.993v-17.93a1.995 1.995 0 00-1.992-1.992zm-7.969-9.96v9.96h-1.992v-7.57a.996.996 0 00-.996-.996h-1.405a2.58 2.58 0 00.409-1.395v-.597h3.387c.324 0 .597.273.597.597zM8.97 5.98c0-.323.273-.597.597-.597h7.97c.55 0 .995-.446.995-.996 0-.77.626-1.395 1.395-1.395s1.394.626 1.394 1.395c0 .55.446.996.996.996h7.97c.323 0 .597.274.597.597v1.594a.606.606 0 01-.598.598H9.566a.606.606 0 01-.597-.598V5.98zm17.55 4.184v1.47a.529.529 0 01-.522.522H13.854a.529.529 0 01-.521-.522v-1.47h13.186zm10.34 29.285v9.961a.606.606 0 01-.597.598H3.59a.606.606 0 01-.598-.598V7.574c0-.324.274-.597.598-.597h3.387v.597c0 .513.15.992.409 1.395H5.98a.996.996 0 00-.996.996v1.992a.996.996 0 001.993 0v-.996h4.364v.674a2.517 2.517 0 002.513 2.514h12.143a2.517 2.517 0 002.514-2.514v-.674h4.364v6.574h-5.976a1.994 1.994 0 00-1.992 1.992v6.147l-1.41 1.41a1.994 1.994 0 000 2.817l1.41 1.41v6.146c0 1.099.893 1.992 1.992 1.992h5.976v6.574H6.977V20.922a.996.996 0 00-1.993 0v26.097c0 .55.446.997.996.997h27.891c.55 0 .996-.446.996-.997v-7.57h1.992zm7.97-1.992H26.9v-6.559a.997.997 0 00-.292-.704l-1.702-1.702 1.702-1.701a.997.997 0 00.292-.705v-6.558h17.93v17.929z" stroke="#776FC4" stroke-width=".8" mask="url(#a)"/><path d="M10.961 34.669h8.965a1.196 1.196 0 100-2.393H10.96a1.196 1.196 0 100 2.392zm0 4.981h8.965a1.196 1.196 0 100-2.393H10.96a1.196 1.196 0 100 2.392zM5.98 17.636c.661 0 1.197-.535 1.197-1.196v0a1.196 1.196 0 10-1.197 1.196z" fill="#776FC4" stroke="#776FC4" stroke-width=".4"/></svg>