<svg width="39" height="49" fill="none" xmlns="http://www.w3.org/2000/svg"><path d="M33.228 6.958h-4.054V5.256c0-.395-.22-.677-.51-.85-.283-.17-.643-.245-.977-.245h-3.16C23.68 1.92 21.672.805 19.41.804a5.291 5.291 0 00-5.122 3.357h-3.106c-.334 0-.682.075-.954.248a.975.975 0 00-.477.847v1.702H5.7v0h-.002A4.956 4.956 0 00.8 11.68h0v32.068c0 2.597 2.354 4.452 4.9 4.452h27.526c2.546 0 4.9-1.855 4.9-4.452V11.69h0v-.01a4.956 4.956 0 00-4.898-4.722zm-6.692-.16v4.076H12.39V6.798h2.889l.012-.001a1.431 1.431 0 001.235-1.165 3.045 3.045 0 012.88-2.358 2.989 2.989 0 012.826 2.356 1.43 1.43 0 001.3 1.168h3.005zM5.702 9.596h4.05v2.672c.07.732.702 1.28 1.436 1.244h16.494a1.43 1.43 0 001.49-1.236l.002-.013V9.596h4.05a2.318 2.318 0 012.264 2.103v32.068c-.006.533-.274.975-.69 1.29-.424.321-.996.505-1.572.505H5.7c-.576 0-1.148-.184-1.572-.505-.421-.319-.69-.767-.69-1.31V11.7a2.318 2.318 0 012.264-2.103z" fill="#27AE60" stroke="#27AE60" stroke-width=".4"/><path d="M13.453 25.809h0a1.319 1.319 0 011.842.06c.025.024.05.048.072.074m-1.914-.134l-4.229 5.91c.199.223.486.345.784.336l.002.2h.002c.346-.006.676-.147.919-.393l4.36-4.137a1.261 1.261 0 00.076-1.782m-1.914-.134l-.003.003-3.436 3.275-1.372-1.423a1.319 1.319 0 00-1.846-.065h0l-.01.01a1.375 1.375 0 000 1.898h0l.001.002 2.291 2.347 4.375-6.047zm1.914.134s0 0 0 0l-.148.134.148-.135s0 0 0 0zm15.845 2.275H18.344a1.319 1.319 0 100 2.638h12.868a1.319 1.319 0 100-2.638zM13.453 16.857h0a1.319 1.319 0 011.842.061 1.263 1.263 0 01-.004 1.856l-4.36 4.136a1.318 1.318 0 01-.919.393h-.002l-.002-.2a1.007 1.007 0 01-.784-.336l4.23-5.91zm0 0l-.003.003-3.436 3.276-1.372-1.423a1.319 1.319 0 00-1.846-.066h0l-.01.01a1.375 1.375 0 000 1.899h0l.001.001 2.291 2.347 4.375-6.047zm17.759 2.409H18.344a1.319 1.319 0 100 2.638h12.868a1.319 1.319 0 100-2.638zM13.453 34.76h0a1.32 1.32 0 011.842.061 1.263 1.263 0 01-.004 1.855l-4.36 4.137a1.319 1.319 0 01-.919.393h-.002l-.002-.2a1.007 1.007 0 01-.784-.335l4.23-5.91zm0 0l-.003.003-3.436 3.276-1.372-1.423a1.319 1.319 0 00-1.846-.065h0l-.01.01a1.375 1.375 0 000 1.898h0l.001.002 2.291 2.346 4.375-6.047zm17.759 2.41H18.344a1.319 1.319 0 100 2.638h12.868a1.319 1.319 0 100-2.638z" fill="#27AE60" stroke="#27AE60" stroke-width=".4"/></svg>