<svg width="46" height="46" fill="none" xmlns="http://www.w3.org/2000/svg"><path d="M44.305 14.673H29.019c5.063-5.388 1.26-14.32-6.195-14.32-7.454 0-11.259 8.932-6.195 14.32H1.343C.6 14.673 0 15.274 0 16.016v28.641C0 45.4.601 46 1.343 46h42.962c.741 0 1.342-.601 1.342-1.343V16.016c0-.742-.6-1.343-1.342-1.343zM22.824 3.038a5.824 5.824 0 015.817 5.817 5.824 5.824 0 01-5.817 5.818 5.824 5.824 0 01-5.818-5.818 5.824 5.824 0 015.818-5.817zm20.138 40.277H2.685V17.358h9.591a8.595 8.595 0 00-1.896 3.91c-2.224 11.115-1.393 6.59-3.201 17.44a1.343 1.343 0 002.648.442c1.799-10.792 1.077-6.813 3.186-17.356.544-2.722 2.768-4.436 4.842-4.436h3.626v5.908H20.43c-.507 0-.967-.227-1.173-.578a1.342 1.342 0 10-2.316 1.358c.688 1.175 2.025 1.905 3.49 1.905h1.051v4.475h-2.116c-.852 0-1.683-.715-2.118-1.822a1.342 1.342 0 10-2.499.983c.854 2.174 2.623 3.524 4.617 3.524h2.116v4.476h-2.648c-1.155 0-2.192-.59-2.704-1.54a1.343 1.343 0 00-2.363 1.277c.983 1.818 2.924 2.948 5.067 2.948h7.982c2.142 0 4.084-1.13 5.066-2.948a1.343 1.343 0 00-2.362-1.277c-.513.95-1.55 1.54-2.704 1.54h-2.649V33.11h2.117c1.993 0 3.762-1.35 4.616-3.524a1.343 1.343 0 00-2.498-.983c-.436 1.107-1.267 1.822-2.118 1.822h-2.117V25.95h1.052c1.464 0 2.801-.73 3.49-1.905a1.342 1.342 0 00-2.317-1.358c-.205.351-.666.578-1.173.578h-1.052v-5.908h3.626c2.074 0 4.298 1.713 4.843 4.436 2.108 10.542 1.386 6.563 3.185 17.356a1.343 1.343 0 002.649-.442c-1.808-10.846-.977-6.318-3.202-17.44a8.594 8.594 0 00-1.896-3.91h9.591v25.957z" fill="#F15634"/></svg>