<svg width="41" height="51" fill="none" xmlns="http://www.w3.org/2000/svg"><path d="M32.768 19.746l-.148-.135-.135.148-1.095 1.197-.135.147.147.135 4.981 4.566s0 0 0 0a5.499 5.499 0 011.777 4.044s0 0 0 0V49.93h2.024V29.848v0a7.528 7.528 0 00-2.434-5.536h0l-4.982-4.566z" fill="#00AEEF" stroke="#00AEEF" stroke-width=".4"/><path d="M26.177.8h0a4.266 4.266 0 014.261 4.26v23.947l5.389 5.39.141.142-.141.14-1.149 1.15-.141.14-.142-.14-8.017-8.018-.002-.003h0a2.536 2.536 0 00-3.368-.261 2.435 2.435 0 00-.176 3.6L26.177.8zm0 0H5.061h0A4.266 4.266 0 00.8 5.06v40.61h0a4.266 4.266 0 004.26 4.26h20.505v-1.653 0a18.263 18.263 0 013.079-10.168h0a1.012 1.012 0 00-.127-1.277l-5.685-5.685L26.177.8zm-.812 47.477v1.453-1.453zm0 0a18.464 18.464 0 013.112-10.279l-3.112 10.28zM2.825 45.67v-2.236h20.304v-2.025H2.824V7.698h25.59v19.285l-.603-.603s0 0 0 0a4.571 4.571 0 00-6.084-.402h0l-.004.003a4.46 4.46 0 00-1.622 3.227v0a4.46 4.46 0 001.3 3.37h0l5.11 5.11a20.28 20.28 0 00-2.962 10.218H5.06a2.237 2.237 0 01-2.237-2.237zM28.413 5.673H2.824v-.612a2.237 2.237 0 012.237-2.237h21.116a2.237 2.237 0 012.237 2.237v.612z" fill="#00AEEF" stroke="#00AEEF" stroke-width=".4"/><path d="M5.873 15.819h3.249a1.824 1.824 0 001.824-1.824v-3.25a1.824 1.824 0 00-1.824-1.823H5.873a1.824 1.824 0 00-1.824 1.824v3.249c0 1.007.816 1.824 1.824 1.824zm.2-4.873h2.849v2.849H6.073v-2.85zm7.922 4.873h3.248a1.824 1.824 0 001.825-1.824v-3.25a1.824 1.824 0 00-1.825-1.823h-3.248a1.824 1.824 0 00-1.825 1.824v3.249c0 1.007.817 1.824 1.825 1.824zm.2-4.873h2.848v2.849h-2.848v-2.85zm7.921 4.873h3.249a1.824 1.824 0 001.824-1.824v-3.25a1.824 1.824 0 00-1.824-1.823h-3.249a1.824 1.824 0 00-1.824 1.824v3.249c0 1.007.817 1.824 1.824 1.824zm.2-4.873h2.849v2.849h-2.849v-2.85zM5.873 23.941h3.249a1.824 1.824 0 001.824-1.824v-3.249a1.824 1.824 0 00-1.824-1.824H5.873a1.824 1.824 0 00-1.824 1.824v3.249c0 1.007.816 1.824 1.824 1.824zm.2-4.873h2.849v2.849H6.073v-2.849zm-.2 12.995h3.249a1.824 1.824 0 001.824-1.825V26.99a1.824 1.824 0 00-1.824-1.825H5.873a1.824 1.824 0 00-1.824 1.825v3.248c0 1.008.816 1.825 1.824 1.825zm.2-4.873h2.849v2.848H6.073V27.19zm7.922-3.249h3.248a1.824 1.824 0 001.825-1.824v-3.249a1.824 1.824 0 00-1.825-1.824h-3.248a1.824 1.824 0 00-1.825 1.824v3.249c0 1.007.817 1.824 1.825 1.824zm.2-4.873h2.848v2.849h-2.848v-2.849zm7.921 4.873h3.249a1.824 1.824 0 001.824-1.824v-3.249a1.824 1.824 0 00-1.824-1.824h-3.249a1.824 1.824 0 00-1.824 1.824v3.249c0 1.007.817 1.824 1.824 1.824zm.2-4.873h2.849v2.849h-2.849v-2.849zm-8.321 12.995h3.248a1.824 1.824 0 001.825-1.825V26.99a1.824 1.824 0 00-1.825-1.825h-3.248a1.824 1.824 0 00-1.825 1.825v3.248c0 1.008.817 1.825 1.825 1.825zm.2-4.873h2.848v2.848h-2.848V27.19zM5.873 40.184h3.249a1.824 1.824 0 001.824-1.824v-3.25a1.824 1.824 0 00-1.824-1.824H5.873a1.824 1.824 0 00-1.824 1.824v3.249c0 1.008.816 1.824 1.824 1.824zm.2-4.873h2.849v2.849H6.073v-2.85zm7.922 4.873h3.248a1.824 1.824 0 001.825-1.824v-3.25a1.824 1.824 0 00-1.825-1.824h-3.248a1.824 1.824 0 00-1.825 1.824v3.249c0 1.008.817 1.824 1.825 1.824zm.2-4.873h2.848v2.849h-2.848v-2.85zm.612 9.346h-.2v2.024h2.024v-2.024h-1.824z" fill="#00AEEF" stroke="#00AEEF" stroke-width=".4"/></svg>