<svg width="28" height="29" fill="none" xmlns="http://www.w3.org/2000/svg"><path d="M2.026 2.378C-.15 4.64.295 7.042.295 14.341c0 6.06-1.058 12.136 4.477 13.566 1.728.445 17.04.445 18.766-.002 2.304-.595 4.179-2.464 4.435-5.723.036-.454.036-15.22 0-15.685-.273-3.471-2.41-5.472-5.226-5.877-.645-.093-.774-.121-4.085-.127C6.918.5 4.343-.024 2.026 2.378z" fill="url(#paint0_linear)"/><path d="M14.146 4.117c-4.192 0-8.172-.373-9.693 3.529-.628 1.612-.537 3.705-.537 6.701 0 2.63-.084 5.102.537 6.7 1.517 3.905 5.53 3.53 9.69 3.53 4.014 0 8.153.419 9.692-3.53.629-1.627.537-3.689.537-6.7 0-3.996.22-6.576-1.718-8.513-1.963-1.963-4.617-1.717-8.513-1.717h.005zm-.917 1.844c8.744-.014 9.857-.986 9.242 12.517-.218 4.776-3.854 4.252-8.324 4.252-8.15 0-8.385-.233-8.385-8.387 0-8.249.647-8.378 7.467-8.385v.003zm6.377 1.698a1.227 1.227 0 100 2.454 1.227 1.227 0 000-2.454zm-5.46 1.435a5.253 5.253 0 000 10.506 5.251 5.251 0 005.251-5.253 5.252 5.252 0 00-5.251-5.253zm0 1.843c4.508 0 4.514 6.82 0 6.82-4.507 0-4.514-6.82 0-6.82z" fill="#fff"/><defs><linearGradient id="paint0_linear" x1="2.08" y1="26.43" x2="27.829" y2="4.143" gradientUnits="userSpaceOnUse"><stop stop-color="#FD5"/><stop offset=".5" stop-color="#FF543E"/><stop offset="1" stop-color="#C837AB"/></linearGradient></defs></svg>