<svg width="28" height="23" fill="none" xmlns="http://www.w3.org/2000/svg"><path d="M27.96 2.754a11.82 11.82 0 01-3.273.897 5.648 5.648 0 002.499-3.14 11.352 11.352 0 01-3.602 1.375A5.678 5.678 0 0013.76 5.77c0 .45.038.884.131 1.296-4.722-.23-8.9-2.494-11.707-5.941a5.718 5.718 0 00-.778 2.87 5.688 5.688 0 002.523 4.721 5.61 5.61 0 01-2.566-.7v.063a5.706 5.706 0 004.55 5.58 5.67 5.67 0 01-1.488.188 5.04 5.04 0 01-1.076-.097c.736 2.25 2.825 3.903 5.308 3.957a11.413 11.413 0 01-7.043 2.422c-.466 0-.912-.02-1.36-.078a15.991 15.991 0 008.714 2.55c10.453 0 16.167-8.659 16.167-16.164 0-.25-.009-.493-.02-.734a11.33 11.33 0 002.846-2.949z" fill="#1DA1F2"/></svg>