<svg width="51" height="54" fill="none" xmlns="http://www.w3.org/2000/svg"><path d="M12.171 13.596a1.216 1.216 0 10.001 2.432 1.216 1.216 0 000-2.432zm9.14 18.991h-2.846v-2.846a1.216 1.216 0 00-2.431 0v2.846h-2.847a1.216 1.216 0 000 2.431h2.847v2.847a1.216 1.216 0 002.43 0V35.02h2.847a1.216 1.216 0 000-2.432z" fill="#27AE60" stroke="#27AE60" stroke-width=".4"/><path d="M9.081 15.541l-5.28 7.041 5.28-7.04zm0 0c.158-.21.244-.466.244-.73v-2.846h15.849v1.631h-8.94a1.216 1.216 0 000 2.431h9.548l4.915 6.555-21.616-7.04zm22.132 8.211H3.286c.081-.422.257-.825.515-1.17l27.412 1.17zm0 0a2.863 2.863 0 00-.516-1.17l.516 1.17zm17.682 9.85h0a8.32 8.32 0 00-11.371-3.047l-3.825 2.208V24.29a5.314 5.314 0 00-1.056-3.166h0l-5.038-6.717v-2.679a3.251 3.251 0 002.031-3.01V4.047A3.25 3.25 0 0026.39.8H8.11a3.25 3.25 0 00-3.247 3.247v4.671c0 1.361.842 2.528 2.031 3.01v2.679l-5.038 6.717h0A5.314 5.314 0 00.8 24.29v19.67a5.284 5.284 0 005.278 5.278h16.208a8.316 8.316 0 0011.25 2.845l12.312-7.11-.1-.172.1.173c3.95-2.28 5.36-7.365 3.047-11.371zM7.294 4.047v-.013a.817.817 0 01.815-.803h18.28c.45 0 .816.366.816.816v4.671c0 .45-.366.816-.816.816H8.11a.817.817 0 01-.815-.816V4.047zM6.278 46.806v0h-.2a2.85 2.85 0 01-2.847-2.847v-.826h18a8.34 8.34 0 00.043 3.673H6.278zm18.933-9.142h0a8.265 8.265 0 00-3.048 3.048H3.23V26.183h28.036v7.984l-6.056 3.497zm19.422 5.203l-4.868 2.811-5.894-10.207 4.868-2.81a5.89 5.89 0 018.05 2.156 5.898 5.898 0 01-2.156 8.05zm-12.313 7.11a5.89 5.89 0 01-8.05-2.156 5.893 5.893 0 012.157-8.052l5.339-3.083 5.893 10.208-5.34 3.082z" fill="#27AE60" stroke="#27AE60" stroke-width=".4"/></svg>