<svg width="52" height="52" fill="none" xmlns="http://www.w3.org/2000/svg"><path d="M44.383 24.477c-3.678 0-6.755 2.62-7.463 6.093h-1.88c-4.2 0-7.618 3.418-7.618 7.617v6.196c0 2.52-2.05 4.57-4.57 4.57-2.52 0-4.57-2.05-4.57-4.57V39.43c1.769-.63 3.046-2.306 3.046-4.29v-2.69c7.253-3.648 12.188-15.26 12.188-21.786 0-3.636-.332-5.432-3.15-7.047A4.576 4.576 0 0025.897 0c-2.52 0-4.57 2.05-4.57 4.57 0 2.52 2.05 4.57 4.57 4.57 1.666 0 3.112-.905 3.91-2.24.57.613.66 1.521.66 3.764 0 7.45-6.64 19.906-13.71 19.906-7.07 0-13.711-12.457-13.711-19.906 0-2.243.091-3.151.66-3.764.799 1.335 2.244 2.24 3.91 2.24 2.52 0 4.57-2.05 4.57-4.57 0-2.52-2.05-4.57-4.57-4.57A4.576 4.576 0 003.15 3.617C.332 5.232 0 7.027 0 10.664 0 17.19 4.934 28.802 12.188 32.45v2.692c0 1.983 1.277 3.658 3.046 4.29v4.952c0 4.2 3.418 7.617 7.618 7.617s7.617-3.417 7.617-7.617v-6.196c0-2.52 2.05-4.57 4.57-4.57h1.88c.709 3.473 3.786 6.094 7.464 6.094 4.2 0 7.617-3.417 7.617-7.617s-3.417-7.617-7.617-7.617zm1.523 9.14H42.86V30.57h3.047v3.047z" fill="#776FC4"/></svg>