<svg width="45" height="54" fill="none" xmlns="http://www.w3.org/2000/svg"><path d="M17.754 23.302c.532 0 .965-.43.965-.961v-.578a.963.963 0 00-.965-.962.963.963 0 00-.965.962v.578c0 .532.433.961.965.961zm9.492 0c.532 0 .965-.43.965-.961v-.578a.963.963 0 00-.965-.962.963.963 0 00-.965.962v.578c0 .532.433.961.965.961zm-4.819 6.344h0a3.615 3.615 0 01-2.646-1.239l2.646 1.24zm0 0h.072c1.018 0 1.988-.431 2.74-1.21l-.144-.139m-2.668 1.35l2.668-1.35m0 0l.144.139a.96.96 0 00-.027-1.36.967.967 0 00-1.364.026l1.247 1.195zm-2.63-.574h.001c.488.01.98-.204 1.382-.62l-1.382.62zm0 0a1.699 1.699 0 01-1.24-.592l1.24.592zm-2.601-.674h0a.967.967 0 011.361.082l-1.361-.082zm0 0a.96.96 0 00-.083 1.358l.083-1.358zM29.99 46.963a.963.963 0 00-.966.961c0 .532.433.962.965.962h6.373c.532 0 .965-.43.965-.962a.963.963 0 00-.965-.961h-6.373z" fill="#00AEEF" stroke="#00AEEF" stroke-width=".4"/><mask id="a" maskUnits="userSpaceOnUse" x="0" y="0" width="45" height="54" fill="#000"><path fill="#fff" d="M0 0h45v54H0z"/><path d="M43.946 51.038l-.805-4.093a.765.765 0 00-1.501.292l.804 4.092c.01.053.017.096.02.131a2.445 2.445 0 01-.31.017H25.521l3.246-13.069.61-2.46c4.608 1.203 10.66 3.107 11.583 7.823a.764.764 0 001.502-.292c-.868-4.43-5.165-6.665-9.388-8.05 1.214-.998 2.19-1.484 4.868-1.006.731.132 1.02-.313 1.091-.453.093-.182.248-.664-.316-1.196-1.763-1.675-2.054-3.766-2.29-6.762v-4.06l-.001-1.039c-.021-4.912-1.337-9.207-3.72-12.175l1.429-2.92c.232-.466.39-1.064-.451-1.551C29.944 2.11 26.182 1.012 22.498 1c-3.68.012-7.442 1.111-11.184 3.268-.84.486-.681 1.084-.451 1.546l1.43 2.923a14.932 14.932 0 00-2.018 3.365.76.76 0 00.7 1.067.765.765 0 00.702-.457c.388-.885.848-1.699 1.37-2.436l.986 2.013c.257.523.703.704 1.292.523 3.14-.972 5.153-1.354 7.175-1.362 2.023.008 4.035.39 7.177 1.363.147.045.286.067.414.067.385 0 .684-.2.877-.592l.985-2.013c1.551 2.195 2.528 5.1 2.838 8.422a2.338 2.338 0 00-.72-.114h-.753a1.247 1.247 0 00-1.247-1.22h-.7c-1.778 0-2.975-1.075-3.67-1.988l-.85-1.312a.759.759 0 00-.097-.12c-.092-.093-.336-.341-.722-.341-.386 0-.63.248-.723.341a.75.75 0 00-.096.12l-.974 1.501c-1.306 2.014-5.415 1.912-8.717 1.83a73.005 73.005 0 00-1.785-.03h-.807c-.68 0-1.235.545-1.248 1.22h-.752c-.251 0-.493.04-.72.113.085-.922.22-1.813.406-2.665a.765.765 0 00-1.495-.325c-.353 1.613-.536 3.351-.546 5.168l-.002 1.077v4.06c-.236 2.996-.527 5.087-2.292 6.763-.56.536-.405 1.016-.312 1.197.071.14.36.583 1.087.452 2.68-.48 3.656.007 4.87 1.005-4.223 1.385-8.52 3.619-9.388 8.05L1.054 51.04c-.044.224-.176.908.25 1.422.396.477 1.032.538 1.542.538h39.308c.51 0 1.146-.061 1.541-.538.427-.514.295-1.198.25-1.424zm-14.171-39.79c-3.1-.94-5.163-1.313-7.272-1.321h-.006c-2.11.008-4.172.38-7.272 1.322L12.372 5.42c3.41-1.911 6.816-2.886 10.125-2.897 3.316.011 6.723.986 10.13 2.897l-2.852 5.829zm-2.415 26.48c-3.307 1.694-6.415 1.68-9.73-.044l-.526-2.116.013-.003c1.063-.269 1.221-1.033 1.221-1.464V32.79c.449.24.91.45 1.377.623 1.022.377 1.907.552 2.785.552.878 0 1.763-.175 2.785-.552.468-.173.928-.383 1.377-.623v1.31c0 .432.158 1.196 1.219 1.464l.015.004-.536 2.16zm5.96-14.659v-2.962h.75c.444 0 .819.38.827.832v1.013c0 .958-.718 1.525-1.61 1.752.02-.213.032-.425.032-.635zm-.35 2.24c.74-.082 1.393-.304 1.927-.639v1.372l.003.06c.21 2.675.481 4.816 1.767 6.632-2.63-.148-3.761.822-5.139 2.004l-.19.163c-.966-.275-3.129-.826-3.146-.832v-2.25c2.26-1.669 4.052-4.095 4.777-6.51zm-19.76-6.422h.527c.538 0 1.125.015 1.747.03 3.684.092 8.268.205 10.04-2.526l.508-.782.4.616.03.045c.74.977 2.359 2.617 4.91 2.617h.418v4.182c0 .416-.05.843-.145 1.276a.748.748 0 00-.029.118c-.721 3.043-3.619 6.324-6.863 7.521-.846.312-1.562.458-2.253.458-.691 0-1.407-.146-2.253-.458-3.244-1.197-6.142-4.479-6.863-7.522a.74.74 0 00-.028-.117 5.976 5.976 0 01-.146-1.276v-4.182zm-3.106 2.04c.014-.447.386-.82.826-.82h.75v2.962c0 .21.013.422.033.635-.892-.227-1.61-.794-1.61-1.752l.001-1.025zM8.333 32.736C9.619 30.919 9.89 28.778 10.1 26.1a.78.78 0 00.003-.059V24.67c.534.335 1.188.557 1.928.638.725 2.416 2.516 4.842 4.777 6.512v2.249c-.018.006-2.18.557-3.146.832l-.19-.163c-1.377-1.182-2.508-2.151-5.14-2.003zM2.846 51.477a2.33 2.33 0 01-.31-.017c.003-.034.01-.077.02-.13l1.484-7.559c.924-4.716 6.975-6.62 11.583-7.823l3.856 15.529H2.846zm21.099 0h-2.89l-2.952-11.888c1.482.618 2.93.923 4.389.93h.047c1.447 0 2.882-.295 4.35-.896l-2.944 11.854z"/></mask><path d="M43.946 51.038l-.805-4.093a.765.765 0 00-1.501.292l.804 4.092c.01.053.017.096.02.131a2.445 2.445 0 01-.31.017H25.521l3.246-13.069.61-2.46c4.608 1.203 10.66 3.107 11.583 7.823a.764.764 0 001.502-.292c-.868-4.43-5.165-6.665-9.388-8.05 1.214-.998 2.19-1.484 4.868-1.006.731.132 1.02-.313 1.091-.453.093-.182.248-.664-.316-1.196-1.763-1.675-2.054-3.766-2.29-6.762v-4.06l-.001-1.039c-.021-4.912-1.337-9.207-3.72-12.175l1.429-2.92c.232-.466.39-1.064-.451-1.551C29.944 2.11 26.182 1.012 22.498 1c-3.68.012-7.442 1.111-11.184 3.268-.84.486-.681 1.084-.451 1.546l1.43 2.923a14.932 14.932 0 00-2.018 3.365.76.76 0 00.7 1.067.765.765 0 00.702-.457c.388-.885.848-1.699 1.37-2.436l.986 2.013c.257.523.703.704 1.292.523 3.14-.972 5.153-1.354 7.175-1.362 2.023.008 4.035.39 7.177 1.363.147.045.286.067.414.067.385 0 .684-.2.877-.592l.985-2.013c1.551 2.195 2.528 5.1 2.838 8.422a2.338 2.338 0 00-.72-.114h-.753a1.247 1.247 0 00-1.247-1.22h-.7c-1.778 0-2.975-1.075-3.67-1.988l-.85-1.312a.759.759 0 00-.097-.12c-.092-.093-.336-.341-.722-.341-.386 0-.63.248-.723.341a.75.75 0 00-.096.12l-.974 1.501c-1.306 2.014-5.415 1.912-8.717 1.83a73.005 73.005 0 00-1.785-.03h-.807c-.68 0-1.235.545-1.248 1.22h-.752c-.251 0-.493.04-.72.113.085-.922.22-1.813.406-2.665a.765.765 0 00-1.495-.325c-.353 1.613-.536 3.351-.546 5.168l-.002 1.077v4.06c-.236 2.996-.527 5.087-2.292 6.763-.56.536-.405 1.016-.312 1.197.071.14.36.583 1.087.452 2.68-.48 3.656.007 4.87 1.005-4.223 1.385-8.52 3.619-9.388 8.05L1.054 51.04c-.044.224-.176.908.25 1.422.396.477 1.032.538 1.542.538h39.308c.51 0 1.146-.061 1.541-.538.427-.514.295-1.198.25-1.424zm-14.171-39.79c-3.1-.94-5.163-1.313-7.272-1.321h-.006c-2.11.008-4.172.38-7.272 1.322L12.372 5.42c3.41-1.911 6.816-2.886 10.125-2.897 3.316.011 6.723.986 10.13 2.897l-2.852 5.829zm-2.415 26.48c-3.307 1.694-6.415 1.68-9.73-.044l-.526-2.116.013-.003c1.063-.269 1.221-1.033 1.221-1.464V32.79c.449.24.91.45 1.377.623 1.022.377 1.907.552 2.785.552.878 0 1.763-.175 2.785-.552.468-.173.928-.383 1.377-.623v1.31c0 .432.158 1.196 1.219 1.464l.015.004-.536 2.16zm5.96-14.659v-2.962h.75c.444 0 .819.38.827.832v1.013c0 .958-.718 1.525-1.61 1.752.02-.213.032-.425.032-.635zm-.35 2.24c.74-.082 1.393-.304 1.927-.639v1.372l.003.06c.21 2.675.481 4.816 1.767 6.632-2.63-.148-3.761.822-5.139 2.004l-.19.163c-.966-.275-3.129-.826-3.146-.832v-2.25c2.26-1.669 4.052-4.095 4.777-6.51zm-19.76-6.422h.527c.538 0 1.125.015 1.747.03 3.684.092 8.268.205 10.04-2.526l.508-.782.4.616.03.045c.74.977 2.359 2.617 4.91 2.617h.418v4.182c0 .416-.05.843-.145 1.276a.748.748 0 00-.029.118c-.721 3.043-3.619 6.324-6.863 7.521-.846.312-1.562.458-2.253.458-.691 0-1.407-.146-2.253-.458-3.244-1.197-6.142-4.479-6.863-7.522a.74.74 0 00-.028-.117 5.976 5.976 0 01-.146-1.276v-4.182zm-3.106 2.04c.014-.447.386-.82.826-.82h.75v2.962c0 .21.013.422.033.635-.892-.227-1.61-.794-1.61-1.752l.001-1.025zM8.333 32.736C9.619 30.919 9.89 28.778 10.1 26.1a.78.78 0 00.003-.059V24.67c.534.335 1.188.557 1.928.638.725 2.416 2.516 4.842 4.777 6.512v2.249c-.018.006-2.18.557-3.146.832l-.19-.163c-1.377-1.182-2.508-2.151-5.14-2.003zM2.846 51.477a2.33 2.33 0 01-.31-.017c.003-.034.01-.077.02-.13l1.484-7.559c.924-4.716 6.975-6.62 11.583-7.823l3.856 15.529H2.846zm21.099 0h-2.89l-2.952-11.888c1.482.618 2.93.923 4.389.93h.047c1.447 0 2.882-.295 4.35-.896l-2.944 11.854z" fill="#00AEEF"/><path d="M43.946 51.038l-.805-4.093a.765.765 0 00-1.501.292l.804 4.092c.01.053.017.096.02.131a2.445 2.445 0 01-.31.017H25.521l3.246-13.069.61-2.46c4.608 1.203 10.66 3.107 11.583 7.823a.764.764 0 001.502-.292c-.868-4.43-5.165-6.665-9.388-8.05 1.214-.998 2.19-1.484 4.868-1.006.731.132 1.02-.313 1.091-.453.093-.182.248-.664-.316-1.196-1.763-1.675-2.054-3.766-2.29-6.762v-4.06l-.001-1.039c-.021-4.912-1.337-9.207-3.72-12.175l1.429-2.92c.232-.466.39-1.064-.451-1.551C29.944 2.11 26.182 1.012 22.498 1c-3.68.012-7.442 1.111-11.184 3.268-.84.486-.681 1.084-.451 1.546l1.43 2.923a14.932 14.932 0 00-2.018 3.365.76.76 0 00.7 1.067.765.765 0 00.702-.457c.388-.885.848-1.699 1.37-2.436l.986 2.013c.257.523.703.704 1.292.523 3.14-.972 5.153-1.354 7.175-1.362 2.023.008 4.035.39 7.177 1.363.147.045.286.067.414.067.385 0 .684-.2.877-.592l.985-2.013c1.551 2.195 2.528 5.1 2.838 8.422a2.338 2.338 0 00-.72-.114h-.753a1.247 1.247 0 00-1.247-1.22h-.7c-1.778 0-2.975-1.075-3.67-1.988l-.85-1.312a.759.759 0 00-.097-.12c-.092-.093-.336-.341-.722-.341-.386 0-.63.248-.723.341a.75.75 0 00-.096.12l-.974 1.501c-1.306 2.014-5.415 1.912-8.717 1.83a73.005 73.005 0 00-1.785-.03h-.807c-.68 0-1.235.545-1.248 1.22h-.752c-.251 0-.493.04-.72.113.085-.922.22-1.813.406-2.665a.765.765 0 00-1.495-.325c-.353 1.613-.536 3.351-.546 5.168l-.002 1.077v4.06c-.236 2.996-.527 5.087-2.292 6.763-.56.536-.405 1.016-.312 1.197.071.14.36.583 1.087.452 2.68-.48 3.656.007 4.87 1.005-4.223 1.385-8.52 3.619-9.388 8.05L1.054 51.04c-.044.224-.176.908.25 1.422.396.477 1.032.538 1.542.538h39.308c.51 0 1.146-.061 1.541-.538.427-.514.295-1.198.25-1.424zm-14.171-39.79c-3.1-.94-5.163-1.313-7.272-1.321h-.006c-2.11.008-4.172.38-7.272 1.322L12.372 5.42c3.41-1.911 6.816-2.886 10.125-2.897 3.316.011 6.723.986 10.13 2.897l-2.852 5.829zm-2.415 26.48c-3.307 1.694-6.415 1.68-9.73-.044l-.526-2.116.013-.003c1.063-.269 1.221-1.033 1.221-1.464V32.79c.449.24.91.45 1.377.623 1.022.377 1.907.552 2.785.552.878 0 1.763-.175 2.785-.552.468-.173.928-.383 1.377-.623v1.31c0 .432.158 1.196 1.219 1.464l.015.004-.536 2.16zm5.96-14.659v-2.962h.75c.444 0 .819.38.827.832v1.013c0 .958-.718 1.525-1.61 1.752.02-.213.032-.425.032-.635zm-.35 2.24c.74-.082 1.393-.304 1.927-.639v1.372l.003.06c.21 2.675.481 4.816 1.767 6.632-2.63-.148-3.761.822-5.139 2.004l-.19.163c-.966-.275-3.129-.826-3.146-.832v-2.25c2.26-1.669 4.052-4.095 4.777-6.51zm-19.76-6.422h.527c.538 0 1.125.015 1.747.03 3.684.092 8.268.205 10.04-2.526l.508-.782.4.616.03.045c.74.977 2.359 2.617 4.91 2.617h.418v4.182c0 .416-.05.843-.145 1.276a.748.748 0 00-.029.118c-.721 3.043-3.619 6.324-6.863 7.521-.846.312-1.562.458-2.253.458-.691 0-1.407-.146-2.253-.458-3.244-1.197-6.142-4.479-6.863-7.522a.74.74 0 00-.028-.117 5.976 5.976 0 01-.146-1.276v-4.182h0zm-3.106 2.04c.014-.447.386-.82.826-.82h.75v2.962c0 .21.013.422.033.635-.892-.227-1.61-.794-1.61-1.752l.001-1.025zM8.333 32.736C9.619 30.919 9.89 28.778 10.1 26.1a.78.78 0 00.003-.059V24.67c.534.335 1.188.557 1.928.638.725 2.416 2.516 4.842 4.777 6.512v2.249c-.018.006-2.18.557-3.146.832l-.19-.163c-1.377-1.182-2.508-2.151-5.14-2.003zM2.846 51.477a2.33 2.33 0 01-.31-.017c.003-.034.01-.077.02-.13l1.484-7.559c.924-4.716 6.975-6.62 11.583-7.823l3.856 15.529H2.846zm21.099 0h-2.89l-2.952-11.888c1.482.618 2.93.923 4.389.93h.047c1.447 0 2.882-.295 4.35-.896l-2.944 11.854z" stroke="#00AEEF" stroke-width=".8" mask="url(#a)"/></svg>