<svg width="52" height="59" fill="none" xmlns="http://www.w3.org/2000/svg"><path d="M22.635 38.795h0a1.397 1.397 0 001.966 0L41.267 22.17a1.386 1.386 0 000-1.962 1.393 1.393 0 00-1.965 0L23.619 35.85l-8.542-8.518s0 0 0 0a1.393 1.393 0 00-1.966 0 1.386 1.386 0 000 1.962l9.524 9.5z" fill="#F2994A" stroke="#F2994A" stroke-width=".4"/><path d="M50.207 7.983h0c.59.177.993.715.993 1.33v26.124c0 5.35-4.08 10.362-9.177 14.35-5.107 3.997-11.291 7.01-15.611 8.352M50.207 7.983L26.352 57.948M50.207 7.983L26.397.858h0a1.396 1.396 0 00-.797 0h0L1.79 7.983s0 0 0 0C1.203 8.158.8 8.7.8 9.313v26.124c0 5.35 4.08 10.363 9.177 14.351 5.107 3.997 11.291 7.01 15.611 8.35m24.62-50.155l-24.56 49.965m.764.19l-.06-.19m.06.19s0 0 0 0l-.06-.19m.06.19A1.387 1.387 0 0126 58.2c-.137 0-.277-.02-.412-.061m.764-.191A1.184 1.184 0 0126 58a1.2 1.2 0 01-.352-.052m-.06.19l.06-.19m-.06.19s0 0 0 0l.06-.19m22.771-22.51c0 2.03-.807 4.104-2.181 6.125-1.374 2.02-3.307 3.98-5.539 5.777-4.444 3.581-10.047 6.507-14.699 8.018-4.652-1.51-10.255-4.437-14.7-8.018-2.23-1.798-4.164-3.756-5.538-5.777-1.374-2.021-2.181-4.094-2.181-6.126V10.345L26 3.636l22.42 6.709v25.092z" fill="#F2994A" stroke="#F2994A" stroke-width=".4"/></svg>