<svg width="39" height="54" fill="none" xmlns="http://www.w3.org/2000/svg"><path d="M37.887 45.976l-.185.076.185-.076-10.995-26.802s0 0 0 0a12.032 12.032 0 01-.904-4.587V7.502c0-.71.276-1.376.778-1.878a3.66 3.66 0 001.08-2.605V2.016A1.217 1.217 0 0026.63.8H12.45c-.67 0-1.215.544-1.215 1.216v1.003a3.66 3.66 0 001.079 2.605c.502.502.778 1.168.778 1.878v7.085c0 1.58-.304 3.124-.904 4.587h0l-3.02 7.362-.002.002-.002.006h0l-.001.003-7.97 19.43h0a5.229 5.229 0 00.495 4.903 5.227 5.227 0 004.349 2.32h27.006a5.227 5.227 0 004.349-2.32h0a5.23 5.23 0 00.495-4.904zm-13.244-25.88l2.339 5.701H12.098l2.339-5.7a14.444 14.444 0 001.086-5.51V7.502c0-1.358-.53-2.637-1.49-3.597a1.242 1.242 0 01-.349-.674h11.712a1.242 1.242 0 01-.349.674h0a5.057 5.057 0 00-1.49 3.597v7.084c0 1.9.366 3.753 1.086 5.51h0zm10.73 29.43h0a2.76 2.76 0 01-2.33 1.243H6.037a2.761 2.761 0 01-2.33-1.243 2.762 2.762 0 01-.469-1.797h1.496a1.216 1.216 0 000-2.431H4.1l1.003-2.444H6.68a1.216 1.216 0 000-2.431H6.1l1.002-2.444h1.627a1.216 1.216 0 000-2.431h-.63l1.003-2.444h1.675a1.216 1.216 0 000-2.431h-.678l1.003-2.444H27.98l7.66 18.67c.36.88.264 1.837-.266 2.627z" fill="#EB5757" stroke="#EB5757" stroke-width=".4"/><path d="M32.873 46.04h0a1.216 1.216 0 00-1.586-.665h0c-.62.255-.919.964-.665 1.586h0l.002.004.005.01a1.216 1.216 0 001.584.663h0c.621-.254.92-.964.665-1.585l-.005-.013zm-7.322-11.442h0a1.216 1.216 0 01.663-1.586l-.663 1.586zm0 0l3.637 8.865a1.215 1.215 0 102.25-.922s0 0 0 0L27.8 33.675l-2.249.923zm2.25-.923a1.215 1.215 0 00-1.586-.663l1.585.663z" fill="#EB5757" stroke="#EB5757" stroke-width=".4"/></svg>